<?xml version="1.0" encoding="UTF-8"?>
<svg width="150px" height="150px" viewBox="0 0 150 150" version="1.1" xmlns="http://www.w3.org/2000/svg" xmlns:xlink="http://www.w3.org/1999/xlink">
    <title>授权</title>
    <defs>
        <linearGradient x1="50%" y1="0%" x2="50%" y2="100%" id="linearGradient-1">
            <stop stop-color="#3AC9FF" offset="0%"></stop>
            <stop stop-color="#1B79FF" offset="100%"></stop>
        </linearGradient>
        <linearGradient x1="50%" y1="0%" x2="50%" y2="100%" id="linearGradient-2">
            <stop stop-color="#3AC9FF" offset="0%"></stop>
            <stop stop-color="#1B79FF" offset="100%"></stop>
        </linearGradient>
        <linearGradient x1="50%" y1="0%" x2="50%" y2="100%" id="linearGradient-3">
            <stop stop-color="#3AC9FF" offset="0%"></stop>
            <stop stop-color="#1B79FF" offset="100%"></stop>
        </linearGradient>
        <filter x="-12.5%" y="-9.2%" width="125.1%" height="118.4%" filterUnits="objectBoundingBox" id="filter-4">
            <feOffset dx="2" dy="2" in="SourceAlpha" result="shadowOffsetOuter1"></feOffset>
            <feColorMatrix values="0 0 0 0 0.128333331   0 0 0 0 0.538360635   0 0 0 0 0.849298007  0 0 0 1 0" type="matrix" in="shadowOffsetOuter1" result="shadowMatrixOuter1"></feColorMatrix>
            <feMerge>
                <feMergeNode in="shadowMatrixOuter1"></feMergeNode>
                <feMergeNode in="SourceGraphic"></feMergeNode>
            </feMerge>
        </filter>
        <linearGradient x1="50%" y1="0%" x2="50%" y2="100%" id="linearGradient-5">
            <stop stop-color="#D89902" offset="0%"></stop>
            <stop stop-color="#EE9C05" offset="100%"></stop>
        </linearGradient>
        <path d="M18.1050159,30.9776647 C18.9016208,30.3173125 19.5660231,29.3932428 19.4329732,28.0725384 C19.4329732,26.09254 17.8395516,24.5076947 15.98003,24.5076947 C14.1205085,24.5076947 12.526875,26.0923283 12.526875,28.0725384 C12.526875,29.260749 13.0580155,30.1852421 13.8548323,30.8453827 C13.9876704,30.8453827 14.1202966,30.9776647 14.1202966,31.1095235 L14.1202966,33.7502974 C14.1202966,36.5231417 14.9173252,36.7872826 15.9798182,36.7872826 C17.0423111,36.7872826 17.8391278,36.3910713 17.8391278,33.7502974 L17.8391278,31.1095235 C17.8393397,31.1095235 17.9721778,30.9776647 18.1050159,30.9776647 L18.1050159,30.9776647 Z" id="path-6"></path>
        <filter x="-7.2%" y="-4.1%" width="114.4%" height="108.1%" filterUnits="objectBoundingBox" id="filter-7">
            <feOffset dx="1" dy="1" in="SourceAlpha" result="shadowOffsetInner1"></feOffset>
            <feComposite in="shadowOffsetInner1" in2="SourceAlpha" operator="arithmetic" k2="-1" k3="1" result="shadowInnerInner1"></feComposite>
            <feColorMatrix values="0 0 0 0 0.758010643   0 0 0 0 0.520270941   0 0 0 0 0  0 0 0 1 0" type="matrix" in="shadowInnerInner1"></feColorMatrix>
        </filter>
        <linearGradient x1="50%" y1="0.431139999%" x2="50%" y2="100%" id="linearGradient-8">
            <stop stop-color="#45D082" offset="0%"></stop>
            <stop stop-color="#26C4B1" offset="100%"></stop>
        </linearGradient>
        <filter x="-18.6%" y="-25.1%" width="137.1%" height="150.2%" filterUnits="objectBoundingBox" id="filter-9">
            <feOffset dx="2" dy="1" in="SourceAlpha" result="shadowOffsetOuter1"></feOffset>
            <feColorMatrix values="0 0 0 0 0.171479542   0 0 0 0 0.696105072   0 0 0 0 0.484098865  0 0 0 1 0" type="matrix" in="shadowOffsetOuter1" result="shadowMatrixOuter1"></feColorMatrix>
            <feMerge>
                <feMergeNode in="shadowMatrixOuter1"></feMergeNode>
                <feMergeNode in="SourceGraphic"></feMergeNode>
            </feMerge>
        </filter>
    </defs>
    <g id="订单簿" stroke="none" stroke-width="1" fill="none" fill-rule="evenodd">
        <g id="交易弹窗" transform="translate(-1087.000000, -221.000000)">
            <g id="链接钱包备份-2" transform="translate(962.000000, 177.000000)">
                <g id="授权" transform="translate(125.000000, 44.000000)">
                    <rect id="矩形" x="0" y="0" width="150" height="150"></rect>
                    <g id="编组-3" transform="translate(4.687500, 2.812500)">
                        <ellipse id="椭圆形" fill="#EEEEEE" cx="70.6222467" cy="139.887803" rx="30" ry="4.21875"></ellipse>
                        <path d="M70.5582976,8.36314364 C61.3579198,16.5533931 44.1470614,28.6560856 19.7568286,30.618858 C19.6823951,38.3573091 19.6823951,49.5821143 19.7568286,64.2932735 C20.006938,96.3603266 36.940761,118.190518 70.5582976,129.783848 C98.4524896,121.379665 120.239115,102.102207 121.600267,64.2932735 C121.512589,50.4601663 121.512589,39.2353612 121.600267,30.618858 C101.269307,27.850985 84.2553168,20.4324136 70.5582976,8.36314364 Z" id="路径-9" fill-opacity="0.1" fill="url(#linearGradient-1)"></path>
                        <path d="M70.5754125,21.3725049 C63.0803356,27.8077009 49.0595301,37.3169593 29.1900558,38.8591376 C29.1294186,44.9393492 29.1294186,53.758839 29.1900558,65.3176069 C29.3938071,90.5131486 43.188926,107.665442 70.5754125,116.774487 C93.299383,110.171201 111.047831,95.0246265 112.156692,65.3176069 C112.085266,54.448737 112.085266,45.6292472 112.156692,38.8591376 C95.5940996,36.6843803 81.733673,30.8555027 70.5754125,21.3725049 Z" id="路径-9" fill-opacity="0.3" fill="url(#linearGradient-2)"></path>
                        <path d="M70.5940456,33.1883558 C64.9555489,38.0295113 54.4077896,45.1832635 39.4601155,46.343434 C39.4144985,50.917537 39.4144985,57.5523808 39.4601155,66.2479655 C39.6133963,85.2024049 49.991373,98.1059618 70.5940456,104.958636 C87.6891384,99.9910274 101.041179,88.5963598 101.875368,66.2479655 C101.821634,58.0713865 101.821634,51.4365427 101.875368,46.343434 C89.4154385,44.7073784 78.9883312,40.3223524 70.5940456,33.1883558 Z" id="路径-9" fill="url(#linearGradient-3)"></path>
                        <g id="编组-7">
                            <circle id="椭圆形" fill="#38CFF1" cx="137.83728" cy="57.9226322" r="2.78772026"></circle>
                            <circle id="椭圆形备份-6" fill="#26C4B1" cx="15.1775881" cy="112.438051" r="4.02670705"></circle>
                            <circle id="椭圆形备份-2" fill="#FFCA31" cx="102.526156" cy="4.02670705" r="4.02670705"></circle>
                            <circle id="椭圆形备份-4" fill="#FEE190" cx="130.093612" cy="126.376652" r="4.95594714"></circle>
                            <circle id="椭圆形备份-5" fill="#FFCA31" cx="3.09746696" cy="43.3645374" r="3.09746696"></circle>
                        </g>
                        <g id="编组-6" filter="url(#filter-4)" transform="translate(54.833425, 47.717511)">
                            <g id="编组-5">
                                <path d="M15.9375,0 C22.455465,0 27.7549413,5.21175863 27.8880608,11.6913518 L27.890625,11.9411838 L27.890625,17.9913836 C27.890625,19.3103704 26.8203057,20.3796204 25.5,20.3796204 C24.226848,20.3796204 23.1861452,19.3853815 23.1134332,18.1317107 L23.109375,17.9913836 L23.109375,11.9411838 C23.109375,7.98422359 19.8984172,4.77647353 15.9375,4.77647353 C12.0473135,4.77647353 8.88054121,7.87068396 8.76868269,11.7299345 L8.765625,11.9411838 L8.765625,17.9913836 C8.765625,19.3103704 7.69530573,20.3796204 6.375,20.3796204 C5.10184805,20.3796204 4.06114524,19.3853815 3.98843324,18.1317107 L3.984375,17.9913836 L3.984375,11.9411838 C3.984375,5.3462501 9.33597135,0 15.9375,0 Z" id="路径" fill="#FFFFFF" fill-rule="nonzero"></path>
                                <rect id="矩形" fill="#FED22A" x="0" y="17.9913836" width="31.875" height="25.4745255" rx="6"></rect>
                                <g id="路径备份" fill-rule="nonzero">
                                    <use fill="url(#linearGradient-5)" xlink:href="#path-6"></use>
                                    <use fill="black" fill-opacity="1" filter="url(#filter-7)" xlink:href="#path-6"></use>
                                </g>
                            </g>
                        </g>
                        <g id="编组-4" transform="translate(77.812500, 81.562500)">
                            <circle id="椭圆形" fill="url(#linearGradient-8)" cx="17.8125" cy="17.8125" r="17.8125"></circle>
                            <g id="编组-2" filter="url(#filter-9)" transform="translate(6.562500, 9.375000)" fill="#FFFFFF" fill-rule="nonzero">
                                <path d="M7.7821717,15.9374285 L7.72641409,15.9362379 C7.63974576,15.9332235 7.55320724,15.9248156 7.46732721,15.9110046 C7.44571664,15.907477 7.42437874,15.9037001 7.40309161,15.8995889 C7.31715106,15.8830456 7.23207033,15.8610107 7.14832237,15.8335145 C7.11737258,15.8232195 7.09224081,15.8143533 7.06724934,15.8049913 C7.03563456,15.7931761 7.00441443,15.7806039 6.97344066,15.7672439 C6.87718627,15.7257375 6.78323188,15.676591 6.69260335,15.6198527 C6.6811713,15.6126321 6.67003255,15.6055061 6.65894514,15.5982638 C6.57160368,15.5413163 6.48731993,15.4769492 6.40712603,15.4053725 L6.33350996,15.3364728 L0.646020201,9.76505869 C-0.193609171,8.94256526 -0.217982779,7.58427704 0.591580223,6.73123702 C1.37733255,5.90328642 2.65989079,5.85560725 3.50235771,6.60555286 L3.57770717,6.67592752 L7.784,10.796 L17.9695253,0.616136726 C18.8009411,-0.214924412 20.1380535,-0.203871773 20.9560496,0.640823487 C21.7492578,1.45992192 21.7630649,2.76212805 21.0050735,3.5980739 L20.9317509,3.67504886 L9.28046627,15.3213633 L9.233,15.365 L9.19157877,15.4054056 C9.18669308,15.4097668 9.18179209,15.4141013 9.17687598,15.4184091 L9.28046627,15.3213633 C9.22514044,15.3766655 9.16757532,15.4282388 9.1080729,15.4760855 C9.08360635,15.4958503 9.05878537,15.5149124 9.03365078,15.5333458 C9.00824255,15.5519115 8.98201733,15.5702502 8.9554886,15.5879183 C8.93707994,15.6002386 8.91866916,15.6120792 8.90011929,15.6236034 C8.8730201,15.6403944 8.84566122,15.656541 8.81803536,15.6720108 C8.79494171,15.6849625 8.77171486,15.6973867 8.74831237,15.7093421 C8.72272114,15.722418 8.69676249,15.7350126 8.67061345,15.7470373 C8.64409723,15.7592128 8.61733874,15.7708345 8.59039889,15.7818704 C8.56715225,15.7914252 8.54392543,15.8004566 8.52058011,15.8090559 C8.49528291,15.8183297 8.4698379,15.8271407 8.44426583,15.8354456 C8.41144367,15.8461617 8.37819555,15.8560515 8.34477314,15.8650939 C8.32357438,15.8707745 8.30223224,15.8761871 8.2808261,15.8812573 C8.25512632,15.8873967 8.22950631,15.892953 8.20381232,15.8980211 C8.1750513,15.9036474 8.14597232,15.9087492 8.11681656,15.9132309 C8.08969999,15.9174389 8.06266451,15.9210486 8.03558245,15.9241268 C8.00986072,15.927019 7.98407094,15.9294692 7.95825068,15.9314394 C7.92464951,15.934023 7.89094949,15.9357704 7.85723291,15.936702 C7.83930145,15.9371957 7.82100683,15.9374672 7.80271109,15.9374987 L7.7821717,15.9374285 L7.7821717,15.9374285 Z" id="形状结合"></path>
                            </g>
                        </g>
                    </g>
                </g>
            </g>
        </g>
    </g>
</svg>