<?xml version="1.0" encoding="UTF-8"?>
<svg width="20px" height="20px" viewBox="0 0 20 20" version="1.1" xmlns="http://www.w3.org/2000/svg" xmlns:xlink="http://www.w3.org/1999/xlink">
    <title>heco</title>
    <g id="热门币种投票" stroke="none" stroke-width="1" fill="none" fill-rule="evenodd">
        <g transform="translate(-1582.000000, -1059.000000)" id="heco">
            <g transform="translate(1582.000000, 1059.000000)">
                <circle id="椭圆形" fill="#1D2243" fill-rule="nonzero" cx="10" cy="10" r="10"></circle>
                <g id="编组-57" transform="translate(5.500000, 3.000000)">
                    <path d="M5.95,4.30846679 C5.95,2.29862702 4.97785794,0.569673196 4.23881565,0.00673072565 C4.23529913,0.00555054485 4.18259808,-0.0251339943 4.18727984,0.0551177075 C4.18727984,0.0562980498 4.1861094,0.0562980498 4.1861094,0.0574783922 C4.12520487,3.93907133 2.15754314,4.9906045 1.07532763,6.40800072 C-1.42173224,9.67828133 0.900812318,13.263625 3.26552396,13.9256829 C4.58901152,14.296263 2.95983085,13.2695483 2.7501815,11.1003461 C2.4960242,8.47919998 5.95,6.47881049 5.95,4.30846679 Z" id="路径" fill="#FFFFFF" fill-rule="nonzero"></path>
                    <path d="M7.3700637,5.60978282 C7.35448524,5.59909593 7.33295187,5.59202532 7.31737341,5.61685343 C7.27547638,6.10661496 6.76909656,7.15468519 6.12745526,8.11639677 C3.95112794,11.3789728 5.19132784,12.9523196 5.88925896,13.7969072 C6.29387366,14.2878562 5.88925896,13.7969072 6.90079572,13.2953793 C6.97980458,13.256302 8.8760173,12.2058569 9.08071725,9.81275063 C9.28063201,7.49537009 7.87165833,6.03445151 7.3700637,5.60978282 Z" id="路径" fill="#32A7DD"></path>
                </g>
            </g>
        </g>
    </g>
</svg>