<?xml version="1.0" encoding="UTF-8"?>
<svg width="20px" height="20px" viewBox="0 0 20 20" version="1.1" xmlns="http://www.w3.org/2000/svg" xmlns:xlink="http://www.w3.org/1999/xlink">
    <title>BSC</title>
    <g id="热门币种投票" stroke="none" stroke-width="1" fill="none" fill-rule="evenodd">
        <g transform="translate(-1173.000000, -1064.000000)" id="编组-25">
            <g transform="translate(360.000000, 883.000000)">
                <g id="编组-32" transform="translate(704.000000, 130.000000)">
                    <g id="编组-24" transform="translate(0.000000, 51.000000)">
                        <g id="heco" transform="translate(109.000000, 0.000000)">
                            <circle id="椭圆形" fill="#000000" cx="10" cy="10" r="10"></circle>
                            <g id="bsc1" transform="translate(4.005270, 3.333333)" fill="#F0B90B" fill-rule="nonzero">
                                <polygon id="路径" points="5.76719527 1.5026455 3.53438046 2.79365079 2.21162913 2.04232804 5.75660268 0 9.30157622 2.04232804 7.99998892 2.79365079"></polygon>
                                <polygon id="路径" points="8.01058151 3.87301587 9.31216881 4.62433862 9.31216881 6.12698413 7.079354 7.41798942 7.079354 10 5.7777667 10.7513228 4.47616881 10 4.47616881 7.41798942 2.24338575 6.12698413 2.24338575 4.62433862 3.54497305 3.87301587 5.7777667 5.16402116"></polygon>
                                <polygon id="路径" points="9.31216881 7.20634921 9.31216881 8.70899471 8.01058151 9.46031746 8.01058151 7.95767196"></polygon>
                                <polygon id="路径" points="8.01058151 10.5396825 10.2433646 9.24867725 10.2539572 9.24867725 10.2539572 6.66666667 11.5555762 5.91534392 11.5555762 10 8.01058151 12.042328"></polygon>
                                <polygon id="路径" points="10.2433646 4.08465608 8.94179844 3.33333333 10.2433646 2.58201058 11.5449942 3.33333333 11.5449942 4.83597884 10.2433646 5.58730159"></polygon>
                                <polygon id="路径" points="4.46560797 12.5820106 4.46560797 11.0793651 5.76719527 11.8306878 7.06876141 11.0793651 7.06876141 12.5820106 5.76719527 13.3333333"></polygon>
                                <polygon id="路径" points="3.53438046 9.46031746 2.23279315 8.70899471 2.23279315 7.20634921 3.53438046 7.95767196"></polygon>
                                <polygon id="路径" points="5.76719527 4.08465608 4.46560797 3.33333333 5.76719527 2.58201058 7.06876141 3.33333333"></polygon>
                                <polygon id="路径" points="2.60316352 3.33333333 1.30156564 4.08465608 1.30156564 5.58730159 0 4.83597884 0 3.33333333 1.30156564 2.58201058"></polygon>
                                <polygon id="路径" points="0 5.91534392 1.30156564 6.66666667 1.31215823 6.66666667 1.31215823 9.24867725 3.54497305 10.5396825 3.54497305 12.042328 0 10"></polygon>
                            </g>
                        </g>
                    </g>
                </g>
            </g>
        </g>
    </g>
</svg>