<?xml version="1.0" encoding="UTF-8"?>
<svg width="24px" height="24px" viewBox="0 0 24 24" version="1.1" xmlns="http://www.w3.org/2000/svg" xmlns:xlink="http://www.w3.org/1999/xlink">
    <title>入选</title>
    <defs>
        <rect id="path-1" x="0" y="0" width="24" height="24"></rect>
        <linearGradient x1="4.68471352%" y1="50%" x2="95.1834089%" y2="50%" id="linearGradient-3">
            <stop stop-color="#F0A338" offset="0%"></stop>
            <stop stop-color="#F0BA18" offset="100%"></stop>
        </linearGradient>
    </defs>
    <g id="热门币种投票" stroke="none" stroke-width="1" fill="none" fill-rule="evenodd">
        <g id="BSC热门币种投票" transform="translate(-400.000000, -800.000000)">
            <g id="编组-21备份" transform="translate(360.000000, 763.000000)">
                <g id="入选" transform="translate(40.000000, 37.000000)">
                    <g id="星形">
                        <mask id="mask-2" fill="white">
                            <use xlink:href="#path-1"></use>
                        </mask>
                        <g id="蒙版"></g>
                        <path d="M12,21.1414825 L8.34336694,22.6902853 C7.83481894,22.9056858 7.24794273,22.6680428 7.03254223,22.1594948 C7.03047484,22.1546138 7.0284463,22.1497165 7.02645679,22.1448033 L5.53599576,18.4640042 L5.53599576,18.4640042 L1.85519673,16.9735432 C1.34328783,16.7662566 1.09634266,16.1832335 1.30362925,15.6713246 C1.30561875,15.6664114 1.3076473,15.661514 1.30971468,15.6566331 L2.85851753,12 L2.85851753,12 L1.30971468,8.34336694 C1.09431418,7.83481894 1.33195718,7.24794273 1.84050518,7.03254223 C1.84538616,7.03047484 1.8502835,7.0284463 1.85519673,7.02645679 L5.53599576,5.53599576 L5.53599576,5.53599576 L7.02645679,1.85519673 C7.23374337,1.34328783 7.81676651,1.09634266 8.3286754,1.30362925 C8.33358863,1.30561875 8.33848597,1.3076473 8.34336694,1.30971468 L12,2.85851753 L12,2.85851753 L15.6566331,1.30971468 C16.1651811,1.09431418 16.7520573,1.33195718 16.9674578,1.84050518 C16.9695252,1.84538616 16.9715537,1.8502835 16.9735432,1.85519673 L18.4640042,5.53599576 L18.4640042,5.53599576 L22.1448033,7.02645679 C22.6567122,7.23374337 22.9036573,7.81676651 22.6963708,8.3286754 C22.6943812,8.33358863 22.6923527,8.33848597 22.6902853,8.34336694 L21.1414825,12 L21.1414825,12 L22.6902853,15.6566331 C22.9056858,16.1651811 22.6680428,16.7520573 22.1594948,16.9674578 C22.1546138,16.9695252 22.1497165,16.9715537 22.1448033,16.9735432 L18.4640042,18.4640042 L18.4640042,18.4640042 L16.9735432,22.1448033 C16.7662566,22.6567122 16.1832335,22.9036573 15.6713246,22.6963708 C15.6664114,22.6943812 15.661514,22.6923527 15.6566331,22.6902853 L12,21.1414825 L12,21.1414825 Z" fill="url(#linearGradient-3)" fill-rule="nonzero" mask="url(#mask-2)" transform="translate(12.000000, 12.000000) rotate(-23.000000) translate(-12.000000, -12.000000) "></path>
                    </g>
                    <polyline id="路径-4" stroke="#FFFFFF" stroke-width="2" stroke-linecap="round" stroke-linejoin="round" points="8.28052291 12.4689947 10.4568158 14.6825419 15.9928129 9.34920861"></polyline>
                </g>
            </g>
        </g>
    </g>
</svg>