<?xml version="1.0" encoding="UTF-8"?>
<svg width="15px" height="15px" viewBox="0 0 15 15" version="1.1" xmlns="http://www.w3.org/2000/svg" xmlns:xlink="http://www.w3.org/1999/xlink">
    <title>Copy</title>
    <g id="热门币种投票" stroke="none" stroke-width="1" fill="none" fill-rule="evenodd">
        <g transform="translate(-1270.000000, -1118.000000)" fill="#3C3C43" fill-rule="nonzero" id="编组-25">
            <g transform="translate(360.000000, 883.000000)">
                <g id="编组-32" transform="translate(704.000000, 130.000000)">
                    <g id="编组-23" transform="translate(0.000000, 103.000000)">
                        <g id="编组-7" transform="translate(109.000000, 0.000000)">
                            <g id="Copy" transform="translate(97.000000, 2.000000)">
                                <path d="M10.2440625,10.6669582 C10.1503125,10.7044582 10.0509375,10.7232082 9.9496875,10.7223042 L0.761249993,10.7223042 C0.559353939,10.7223042 0.365727023,10.6420679 0.222964956,10.4993058 C0.0802028884,10.3565437 0,10.1629168 0,9.96102074 L0,0.761333238 C0,0.340906476 0.340823231,0 0.761249993,0 L9.9496875,0 C10.1535257,-0.00292947437 10.3500553,0.0759414459 10.4952599,0.219031355 C10.6404644,0.362121264 10.7221875,0.557472795 10.7221875,0.761333238 L10.7221875,9.96102074 C10.7216418,10.2718047 10.5324565,10.5511313 10.2440625,10.6669582 L10.2440625,10.6669582 Z" id="路径" fill-opacity="0.3"></path>
                                <path d="M11.7834375,4.27781249 L14.2275,4.27781249 C14.4313382,4.27488302 14.6278678,4.35375394 14.7730724,4.49684385 C14.9182769,4.63993376 15,4.8352853 15,5.03914574 L15,14.2388332 C15,14.65926 14.6591768,15.0001811 14.23875,15.0001811 L5.05031249,15.0001811 C4.8463991,15.0033525 4.64972088,14.9245649 4.50445996,14.7814194 C4.35919904,14.638274 4.27753482,14.4427727 4.27781179,14.2388332 L4.27781179,11.7825832 L10.9359375,11.7825832 C11.1604599,11.782832 11.3758852,11.6938794 11.5348223,11.5352939 C11.6937594,11.3767084 11.783189,11.1614806 11.7834375,10.9369582 L11.7834375,4.27781249 Z" id="路径" fill-opacity="0.18"></path>
                            </g>
                        </g>
                    </g>
                </g>
            </g>
        </g>
    </g>
</svg>