<?xml version="1.0" encoding="UTF-8"?>
<svg width="20px" height="20px" viewBox="0 0 20 20" version="1.1" xmlns="http://www.w3.org/2000/svg" xmlns:xlink="http://www.w3.org/1999/xlink">
    <title>Discord icon</title>
    <defs>
        <filter color-interpolation-filters="auto" id="filter-1">
            <feColorMatrix in="SourceGraphic" type="matrix" values="0 0 0 0 0.000000 0 0 0 0 0.000000 0 0 0 0 0.000000 0 0 0 1.000000 0"></feColorMatrix>
        </filter>
    </defs>
    <g id="热门币种投票" stroke="none" stroke-width="1" fill="none" fill-rule="evenodd">
        <g id="BSC热门币种投票" transform="translate(-1293.000000, -1165.000000)">
            <g id="编组-25" transform="translate(360.000000, 883.000000)">
                <g id="编组-32" transform="translate(704.000000, 130.000000)">
                    <g id="编组-30" transform="translate(0.000000, 152.000000)">
                        <g id="Discord-icon" transform="translate(109.000000, 0.000000)" filter="url(#filter-1)">
                            <g transform="translate(120.002979, 0.000000)">
                                <path d="M9.99847928,0 C15.5228916,0 19.9969586,4.47474747 19.9969586,10 C19.9969586,15.5252525 15.5228916,20 9.99847928,20 C4.47406699,20 0,15.5252525 0,10 C0,4.47474747 4.47406699,0 9.99847928,0 Z M11.9086814,5.14878648 L11.7997182,5.14876811 C11.7403875,5.14997347 11.7084402,5.15285457 11.7084402,5.15285457 L11.5670476,5.29402867 C13.4859476,5.78813801 14.4857955,6.71585352 14.4857955,6.71585352 C12.9203771,5.78813801 10.9307807,5.64696392 10.1430217,5.64696392 L9.7188438,5.64696392 C8.86038851,5.64696392 6.87079213,5.85872506 5.37606997,6.71585352 C5.37606997,6.71585352 6.3759179,5.78813801 8.29481797,5.29402867 L8.15342533,5.15285457 L8.05544253,5.15260047 C7.68959764,5.16004745 6.35609301,5.26153622 5.02258838,6.29233122 C5.02258838,6.29233122 3.31577727,9.34774205 3.45716991,12.6855011 C3.45716991,12.6855011 4.52771416,14.3190871 6.87079213,14.3190871 L7.57775531,13.3913716 C7.57775531,13.3913716 6.22442579,12.9678493 5.65885525,12.1107208 C5.65885525,12.1107208 7.29497004,13.2501975 9.78954012,13.3207845 L10.213718,13.3207845 C12.7082881,13.1796104 14.3444029,12.1107208 14.3444029,12.1107208 C13.7788324,12.9678493 12.4255028,13.3913716 12.4255028,13.3913716 L13.132466,14.3190871 C15.475544,14.2485 16.5460882,12.6855011 16.5460882,12.6855011 C16.5460882,9.34774205 14.8392771,6.29233122 14.8392771,6.29233122 C13.6093055,5.28610564 12.3793338,5.15763926 11.9086814,5.14878648 Z M7.87064006,9.27715501 C8.50690692,9.27715501 9.01188062,9.8418514 9.01188062,10.4872187 C9.01188062,11.132586 8.50690692,11.6972824 7.87064006,11.6972824 C7.23437319,11.6972824 6.72939949,11.132586 6.72939949,10.4872187 C6.72939949,9.85193526 7.22427372,9.27715501 7.87064006,9.27715501 Z M11.9205291,9.27715501 C12.556796,9.27715501 13.0617697,9.8418514 13.0617697,10.4872187 C13.132466,11.1225021 12.5668955,11.6972824 11.9205291,11.6972824 C11.2842623,11.6972824 10.7792886,11.132586 10.7792886,10.4872187 C10.7792886,9.85193526 11.2741628,9.27715501 11.9205291,9.27715501 Z" id="形状结合" fill="#000000" fill-rule="nonzero"></path>
                            </g>
                        </g>
                    </g>
                </g>
            </g>
        </g>
    </g>
</svg>