<?xml version="1.0" encoding="UTF-8"?>
<svg width="12px" height="12px" viewBox="0 0 12 12" version="1.1" xmlns="http://www.w3.org/2000/svg" xmlns:xlink="http://www.w3.org/1999/xlink">
    <title>下拉备份</title>
    <g id="订单簿" stroke="none" stroke-width="1" fill="none" fill-rule="evenodd">
        <g id="市价-下拉菜单" transform="translate(-335.000000, -249.000000)">
            <g id="编组-14" transform="translate(0.000000, 88.000000)">
                <g id="限价" transform="translate(161.000000, 154.000000)">
                    <g id="下拉备份" transform="translate(174.000000, 7.000000)">
                        <rect id="矩形" x="0" y="0" width="12" height="12"></rect>
                        <path d="M6.70382081,4.3496227 L9.93058576,7.86972992 C10.3037782,8.27684891 10.2762752,8.90941628 9.86915625,9.28260869 C9.68472642,9.45166936 9.44362329,9.54545455 9.19343162,9.54545455 L2.73990172,9.54545455 C2.18761697,9.54545455 1.73990172,9.0977393 1.73990172,8.54545455 C1.73990172,8.29526288 1.8336869,8.05415974 2.00274758,7.86972992 L5.22951253,4.3496227 C5.60270493,3.94250371 6.23527231,3.91500078 6.6423913,4.28819319 C6.66374799,4.30777016 6.68424383,4.328266 6.70382081,4.3496227 Z" id="三角形" fill="#75799D" transform="translate(5.966667, 6.545455) rotate(-180.000000) translate(-5.966667, -6.545455) "></path>
                    </g>
                </g>
            </g>
        </g>
    </g>
</svg>