<?xml version="1.0" encoding="UTF-8"?>
<svg width="14px" height="14px" viewBox="0 0 14 14" version="1.1" xmlns="http://www.w3.org/2000/svg" xmlns:xlink="http://www.w3.org/1999/xlink">
    <title>挂单</title>
    <g id="行情" stroke="none" stroke-width="1" fill="none" fill-rule="evenodd">
        <g id="行情-现货" transform="translate(-16.000000, -241.000000)" fill-rule="nonzero">
            <g id="编组-22" transform="translate(0.000000, 87.000000)">
                <g id="筛选栏" transform="translate(0.000000, 86.000000)">
                    <g id="交易对" transform="translate(0.000000, 35.000000)">
                        <g id="编组-9" transform="translate(16.000000, 12.000000)">
                            <g id="挂单" transform="translate(0.000000, 21.000000)">
                                <path d="M7,14 C3.15991192,14 0,10.8387098 0,6.99964795 C0,3.15917703 3.15991196,0 7,0 C10.8393876,-0.00140861808 14,3.16058615 14,6.99823886 C14,10.8387098 10.8393876,14 7,14 Z" id="路径" fill="#2C72F4"></path>
                                <path d="M10.2958333,7.12190822 C10.2887075,6.75667552 10.0017784,6.46407469 9.64944394,6.46274168 L9.64944394,6.46403797 C9.29722495,6.4640352 9.01130827,6.7593183 9.00993107,7.12450081 L9.00993107,6.35255652 C9.00993107,5.98582417 8.72319156,5.68852887 8.36948046,5.68852887 C8.01576935,5.68852887 7.72902985,5.98582417 7.72902985,6.35255652 L7.72902985,5.88264921 C7.71822644,5.524345 7.4349554,5.23968383 7.08920437,5.23968383 C6.74345334,5.23968383 6.4601823,5.524345 6.4493789,5.88264921 L6.4493789,3.93042735 C6.4493789,3.56616815 6.16306716,3.26996451 5.80861575,3.26931603 C5.45590966,3.26895732 5.16951187,3.56473841 5.16847771,3.93042735 L5.16847771,8.65283384 L4.41268974,7.87246362 C4.14282051,7.61526379 3.7234177,7.63175482 3.47311212,7.90940807 C3.2367404,8.17150695 3.2367404,8.57869789 3.47311212,8.84079677 L5.56668856,11.000426 C6.07346717,11.6458578 6.83379647,12.0201369 7.63650991,12.019316 C9.06119213,12.019316 10.2251931,10.8662593 10.2920825,9.42088924 L10.2958333,9.42088924 L10.2958333,7.12190822 L10.2958333,7.12190822 Z" id="路径" fill="#FFFFFF" transform="translate(6.795833, 7.644316) rotate(-15.000000) translate(-6.795833, -7.644316) "></path>
                            </g>
                        </g>
                    </g>
                </g>
            </g>
        </g>
    </g>
</svg>