<?xml version="1.0" encoding="UTF-8"?>
<svg width="48px" height="48px" viewBox="0 0 48 48" version="1.1" xmlns="http://www.w3.org/2000/svg" xmlns:xlink="http://www.w3.org/1999/xlink">
    <title>全部项目</title>
    <g id="热门币种投票" stroke="none" stroke-width="1" fill="none" fill-rule="evenodd">
        <g transform="translate(-536.000000, -428.000000)" fill="#FFFFFF" id="编组-17">
            <g transform="translate(359.000000, 372.000000)">
                <g id="编组-13备份" transform="translate(177.000000, 45.000000)">
                    <g id="全部项目" transform="translate(0.000000, 11.000000)">
                        <path d="M13.4190378,1.41176471 L13.43333,1.40986039 C20.4563979,0.474094105 27.5726089,0.474734471 34.5955084,1.41176471 C40.8399537,2.24492972 45.7506752,7.1606304 46.5775115,13.4059169 L46.6077892,13.6346109 C47.5318405,20.6141851 47.5252651,27.6855428 46.5882353,34.6633865 C45.7546992,40.8705366 40.8701815,45.7520483 34.6625194,46.5817632 L34.6140974,46.5882353 C27.6035364,47.5252655 20.4996089,47.5275386 13.4884496,46.5949952 L13.3301483,46.5739397 C7.12752141,45.7489379 2.24520597,40.8732616 1.41176471,34.671763 C0.47473497,27.6994798 0.467432302,20.6336573 1.39004806,13.6594521 L1.4216783,13.4203539 C2.24894294,7.16692365 7.16638418,2.24487958 13.4190378,1.41176471 Z" id="矩形" fill-opacity="0.2"></path>
                        <path d="M20.6945663,8 C25.5524084,10.5323024 29.6538017,15.2071559 30.1076709,20.5534477 C31.4937733,19.5268386 32.7084139,18.0859838 32.7084139,16.4225169 C36.8234953,20.1147074 36.9661399,24.7160773 36.9963979,26.0503088 L37,26.2894908 C37,27.041617 36.9430862,27.80527 36.8234953,28.5739661 C36.0418315,33.402991 32.7350697,37.3530946 28.344785,38.9437983 L28.2914734,38.9625294 C27.5868954,39.1959479 26.8218015,39.3854203 25.9897078,39.5165381 C25.286188,39.6288757 24.5753874,39.6895538 23.8630061,39.6980858 C18.0981459,39.6224409 12.1553402,35.84524 11.2382361,30.306594 C10.4961958,25.2736881 11.2382361,19.5268386 17.0773003,13.9341606 L17.2127406,14.7950714 C17.4612881,16.3454312 17.7617063,17.9570273 18.2119735,18.8957442 L18.652875,18.0816612 L18.8697237,17.6710176 L19.0887336,17.2459654 C20.3494816,14.7532866 21.317736,12.0135011 20.6945663,8 Z M24.2718983,24.8029839 C23.3833173,24.8029839 22.6901163,25.0564245 22.1922952,25.5633057 C21.6944741,26.0702215 21.4455635,26.7786034 21.4455635,27.6884859 C21.4455635,28.3398445 21.5712637,28.8822053 21.8226641,29.3156375 C22.0740644,29.7490351 22.4019914,30.0658272 22.8064797,30.2660484 C23.2109335,30.4662696 23.721826,30.5663802 24.3390882,30.5663802 C24.9464258,30.5663802 25.4535836,30.4504317 25.8605617,30.2185348 C26.2675053,29.9866378 26.5786262,29.6622034 26.793959,29.2453007 C27.0092573,28.8283634 27.1169065,28.2942328 27.1169065,27.6428396 C27.1169065,26.7456481 26.8704857,26.0480554 26.3776442,25.5500268 C25.8848027,25.0519982 25.1828874,24.8029839 24.2718983,24.8029839 Z M19.6851905,24.8979766 C19.2160887,24.8979766 18.8358066,25.2782587 18.8358066,25.7473605 L18.8358066,25.7473605 L18.8358066,26.8482831 L16.9876855,26.8482831 L16.9876855,25.7436431 L16.9810965,25.6375645 C16.9289133,25.2205858 16.5731409,24.8979766 16.142019,24.8979766 C15.6749703,24.8979766 15.2963525,25.2765944 15.2963525,25.7436431 L15.2963525,25.7436431 L15.2963525,29.6256864 L15.3029414,29.731765 C15.3551246,30.1487437 15.7108971,30.4713529 16.142019,30.4713529 C16.6090677,30.4713529 16.9876855,30.0927351 16.9876855,29.6256864 L16.9876855,29.6256864 L16.9876855,28.2168762 L18.8358066,28.2168762 L18.8358066,29.621969 L18.8424245,29.7285139 C18.8948371,30.1473255 19.2521735,30.4713529 19.6851905,30.4713529 C20.1542923,30.4713529 20.5345744,30.0910708 20.5345744,29.621969 L20.5345744,29.621969 L20.5345744,25.7473605 L20.5279565,25.6408156 C20.4755439,25.222004 20.1182075,24.8979766 19.6851905,24.8979766 Z M31.8984927,24.8980112 L28.1335736,24.8980112 L28.0318886,24.9054721 C27.7000682,24.9546205 27.4454559,25.2406407 27.4454559,25.5861288 C27.4454559,25.9661657 27.7535367,26.2742465 28.1335736,26.2742465 L28.1335736,26.2742465 L29.1703667,26.2742465 L29.1703667,29.6256864 L29.1769556,29.731765 C29.2291388,30.1487437 29.5849113,30.4713529 30.0160332,30.4713529 C30.4830819,30.4713529 30.8616997,30.0927351 30.8616997,29.6256864 L30.8616997,29.6256864 L30.8616997,26.2742465 L31.8984927,26.2742465 L32.0001777,26.2667856 C32.3319982,26.2176372 32.5866104,25.9316169 32.5866104,25.5861288 C32.5866104,25.2060919 32.2785296,24.8980112 31.8984927,24.8980112 L31.8984927,24.8980112 Z M24.2681636,26.1069806 C24.6241008,26.1069806 24.9060012,26.2280124 25.1138301,26.4700414 C25.321659,26.712105 25.4255734,27.0953955 25.4255734,27.620051 C25.4255734,28.2435377 25.3260161,28.6756559 25.1269015,28.9164746 C24.9277869,29.1572241 24.646509,29.2775989 24.2831369,29.2775989 C23.9296549,29.2775989 23.6502789,29.1546998 23.4449052,28.9088323 C23.2395661,28.6629648 23.1368966,28.2587186 23.1368966,27.6960936 C23.1368966,27.1283507 23.2401886,26.7215801 23.4467726,26.4757472 C23.6533566,26.2298797 23.9271651,26.1069806 24.2681636,26.1069806 Z" id="形状结合"></path>
                    </g>
                </g>
            </g>
        </g>
    </g>
</svg>