<?xml version="1.0" encoding="UTF-8"?>
<svg width="48px" height="48px" viewBox="0 0 48 48" version="1.1" xmlns="http://www.w3.org/2000/svg" xmlns:xlink="http://www.w3.org/1999/xlink">
    <title>入选项目</title>
    <defs>
        <filter color-interpolation-filters="auto" id="filter-1">
            <feColorMatrix in="SourceGraphic" type="matrix" values="0 0 0 0 1.000000 0 0 0 0 1.000000 0 0 0 0 1.000000 0 0 0 1.000000 0"></feColorMatrix>
        </filter>
    </defs>
    <g id="热门币种投票" stroke="none" stroke-width="1" fill="none" fill-rule="evenodd">
        <g transform="translate(-840.000000, -428.000000)" id="编组-17">
            <g transform="translate(359.000000, 372.000000)">
                <g id="编组-13" transform="translate(481.000000, 45.000000)">
                    <g id="入选项目" transform="translate(0.000000, 11.000000)">
                        <path d="M13.4190378,1.41176471 L13.43333,1.40986039 C20.4563979,0.474094105 27.5726089,0.474734471 34.5955084,1.41176471 C40.8399537,2.24492972 45.7506752,7.1606304 46.5775115,13.4059169 L46.6077892,13.6346109 C47.5318405,20.6141851 47.5252651,27.6855428 46.5882353,34.6633865 C45.7546992,40.8705366 40.8701815,45.7520483 34.6625194,46.5817632 L34.6140974,46.5882353 C27.6035364,47.5252655 20.4996089,47.5275386 13.4884496,46.5949952 L13.3301483,46.5739397 C7.12752141,45.7489379 2.24520597,40.8732616 1.41176471,34.671763 C0.47473497,27.6994798 0.467432302,20.6336573 1.39004806,13.6594521 L1.4216783,13.4203539 C2.24894294,7.16692365 7.16638418,2.24487958 13.4190378,1.41176471 Z" id="矩形" fill-opacity="0.2" fill="#FFFFFF"></path>
                        <g filter="url(#filter-1)" id="编组">
                            <g transform="translate(11.000000, 11.000000)">
                                <path d="M25.0334058,22.232109 C24.5650694,22.803789 23.7064527,22.8557599 23.1340416,22.3880217 L13.2989779,14.1246469 L11.295539,16.4893233 L5.12911011,11.3182177 L11.4256324,3.91236291 L17.5920612,9.08346854 L15.6926971,11.3182177 L25.5277608,19.5815925 C26.1001719,20.0493307 26.1522093,20.9068507 25.6838729,21.4525453 L25.0334058,22.232109 Z M20.3240234,8.35587578 C19.8556871,8.92755581 18.9970704,8.97952672 18.4246592,8.51178854 L12.2582304,3.36666836 C11.6858192,2.89893017 11.6337819,2.04141014 12.1021183,1.49571556 L12.9607349,0.482282799 C13.4290713,-0.0893972323 14.287688,-0.167353597 14.8600991,0.32637007 L21.0265279,5.44550479 C21.5989391,5.91324298 21.6509764,6.77076301 21.1826401,7.31645756 L20.3240234,8.35587578 Z M11.0353521,19.3477234 L10.1767354,20.3611562 C9.70839907,20.9328362 8.84978239,20.9848071 8.27737126,20.5170689 L2.11094239,15.3719488 C1.53853126,14.9042106 1.48649389,14.0466905 1.95483027,13.500996 L2.81344696,12.4875632 C3.28178331,11.9158832 4.14039999,11.8379268 4.71281112,12.3316505 L10.87924,17.5027561 C11.4256324,17.9445088 11.5036885,18.7760434 11.0353521,19.3477234 Z M16.2651082,24.1030617 L16.2651082,24.6227709 C16.2911269,25.3503636 15.7447345,25.9480291 15.0422299,26 L1.22630705,26 C0.497783802,25.9480291 -0.0486086155,25.3503636 0.00342875763,24.6227709 L0.00342875763,24.1030617 C-0.0225899289,23.375469 0.523802489,22.7778035 1.22630705,22.7258326 L15.0422299,22.7258326 C15.7447345,22.7518181 16.2911269,23.375469 16.2651082,24.1030617 L16.2651082,24.1030617 Z" id="形状" fill="#4786EA" fill-rule="nonzero"></path>
                            </g>
                        </g>
                    </g>
                </g>
            </g>
        </g>
    </g>
</svg>