<?xml version="1.0" encoding="UTF-8"?>
<svg width="20px" height="20px" viewBox="0 0 20 20" version="1.1" xmlns="http://www.w3.org/2000/svg" xmlns:xlink="http://www.w3.org/1999/xlink">
    <title>Telegram icon</title>
    <defs>
        <filter color-interpolation-filters="auto" id="filter-1">
            <feColorMatrix in="SourceGraphic" type="matrix" values="0 0 0 0 0.000000 0 0 0 0 0.000000 0 0 0 0 0.000000 0 0 0 1.000000 0"></feColorMatrix>
        </filter>
    </defs>
    <g id="热门币种投票" stroke="none" stroke-width="1" fill="none" fill-rule="evenodd">
        <g transform="translate(-1233.000000, -1165.000000)" id="编组-25">
            <g transform="translate(360.000000, 883.000000)">
                <g id="编组-32" transform="translate(704.000000, 130.000000)">
                    <g id="编组-30" transform="translate(0.000000, 152.000000)">
                        <g id="Telegram-icon" transform="translate(109.000000, 0.000000)" filter="url(#filter-1)">
                            <g transform="translate(60.001490, 0.000000)">
                                <path d="M10.0003724,0 C4.47597314,0 0,4.47580645 0,10 C0,15.5241935 4.47597314,20 10.0003724,20 C15.5247717,20 20.0007448,15.5241935 20.0007448,10 C20.0007448,4.47580645 15.5247717,0 10.0003724,0 Z M15.070847,6.85080645 L13.4121572,14.5846774 C13.2898951,15.1330645 12.9597873,15.266129 12.4992665,15.0080645 L9.97251555,13.1653226 L8.75396951,14.3266129 C8.61948115,14.4596774 8.50536982,14.5725806 8.24454391,14.5725806 L8.42386172,12.0282258 L13.1065018,7.84274194 C13.3102721,7.66532258 13.0616724,7.56451613 12.7926957,7.74193548 L7.00562085,11.3467742 L4.51147311,10.5766129 C3.96944428,10.4072581 3.95721806,10.0403226 4.62558445,9.78225806 L14.3698773,6.06451613 C14.8222473,5.90322581 15.2175615,6.1733871 15.070847,6.85080645 Z" fill="#000000" fill-rule="nonzero"></path>
                            </g>
                        </g>
                    </g>
                </g>
            </g>
        </g>
    </g>
</svg>