<?xml version="1.0" encoding="UTF-8"?>
<svg width="24px" height="24px" viewBox="0 0 24 24" version="1.1" xmlns="http://www.w3.org/2000/svg" xmlns:xlink="http://www.w3.org/1999/xlink">
    <title>Telegram icon</title>
    <defs>
        <filter color-interpolation-filters="auto" id="filter-1">
            <feColorMatrix in="SourceGraphic" type="matrix" values="0 0 0 0 0.000000 0 0 0 0 0.000000 0 0 0 0 0.000000 0 0 0 1.000000 0"></feColorMatrix>
        </filter>
    </defs>
    <g id="币种详情" stroke="none" stroke-width="1" fill="none" fill-rule="evenodd">
        <g id="币种详情(入口&amp;弹窗)" transform="translate(-1046.000000, -707.000000)">
            <g id="链接钱包备份" transform="translate(772.000000, 164.000000)">
                <g id="编组备份-6" transform="translate(30.000000, 525.000000)">
                    <g id="Telegram-icon" transform="translate(176.000000, 18.000000)" filter="url(#filter-1)">
                        <g transform="translate(68.001788, 0.000000)">
                            <path d="M12.0004469,0 C5.37116777,0 0,5.37096774 0,12 C0,18.6290323 5.37116777,24 12.0004469,24 C18.629726,24 24.0008938,18.6290323 24.0008938,12 C24.0008938,5.37096774 18.629726,0 12.0004469,0 Z M18.0850163,8.22096774 L16.0945886,17.5016129 C15.9478741,18.1596774 15.5517447,18.3193548 14.9991198,18.0096774 L11.9670187,15.7983871 L10.5047634,17.1919355 C10.3433774,17.3516129 10.2064438,17.4870968 9.8934527,17.4870968 L10.1086341,14.433871 L15.7278022,9.41129032 C15.9723265,9.1983871 15.6740069,9.07741935 15.3512348,9.29032258 L8.40674502,13.616129 L5.41376774,12.6919355 C4.76333313,12.4887097 4.74866167,12.0483871 5.55070134,11.7387097 L17.2438528,7.27741935 C17.7866967,7.08387097 18.2610738,7.40806452 18.0850163,8.22096774 Z" fill="#000000" fill-rule="nonzero"></path>
                        </g>
                    </g>
                </g>
            </g>
        </g>
    </g>
</svg>